<svg id="svg" xmlns="http://www.w3.org/2000/svg" xmlns:xlink="http://www.w3.org/1999/xlink" width="400" height="400" viewBox="0, 0, 400,400"><g id="svgg"><path id="path0" d="M149.254 4.666 C 106.667 15.750,61.837 46.838,36.639 82.761 L 24.110 100.622 48.622 102.431 C 63.464 103.526,91.976 109.474,120.896 117.507 C 238.287 150.119,299.812 144.567,342.085 97.550 C 359.106 78.619,358.796 73.390,339.552 54.832 C 290.625 7.650,214.696 -12.367,149.254 4.666 M368.512 122.775 C 308.743 185.192,227.531 191.573,116.418 142.581 C 48.543 112.654,19.685 108.721,12.052 128.358 C 0.757 157.417,0.665 157.124,21.692 159.128 C 52.534 162.067,96.924 175.173,155.938 198.763 C 258.944 239.938,301.614 243.296,360.127 214.832 C 399.887 195.490,406.914 176.461,390.657 132.151 C 382.099 108.825,381.936 108.756,368.512 122.775 M0.000 184.736 C 0.000 193.003,1.306 197.015,3.996 197.015 C 13.797 197.015,71.784 229.150,122.388 262.625 C 227.795 332.352,284.529 349.733,343.487 330.359 C 365.924 322.986,396.516 273.913,396.912 244.658 L 397.015 237.078 371.737 249.454 C 301.308 283.936,255.297 278.966,147.761 225.259 C 81.419 192.126,48.868 179.785,14.049 174.563 L 0.000 172.456 0.000 184.736 M1.508 233.582 C 19.638 346.761,135.584 422.616,249.254 395.665 C 286.065 386.937,308.528 373.150,285.997 373.113 C 233.884 373.029,158.502 336.291,71.372 268.514 C 7.323 218.692,-1.592 214.234,1.508 233.582 " stroke="none" fill="#f26c64" fill-rule="evenodd"></path></g></svg>